<?xml version="1.0" encoding="UTF-8" standalone="no"?>
<!-- Created with Inkscape (http://www.inkscape.org/) -->

<svg
   xmlns:dc="http://purl.org/dc/elements/1.1/"
   xmlns:cc="http://creativecommons.org/ns#"
   xmlns:rdf="http://www.w3.org/1999/02/22-rdf-syntax-ns#"
   xmlns:svg="http://www.w3.org/2000/svg"
   xmlns="http://www.w3.org/2000/svg"
   xmlns:sodipodi="http://sodipodi.sourceforge.net/DTD/sodipodi-0.dtd"
   xmlns:inkscape="http://www.inkscape.org/namespaces/inkscape"
   width="169.33345mm"
   height="101.59992mm"
   viewBox="0 0 169.33345 101.59992"
   version="1.1"
   id="svg8"
   inkscape:version="0.92.3 (3ce5693, 2018-03-11)"
   sodipodi:docname="graduation-cap.svg">
  <defs
     id="defs2" />
  <sodipodi:namedview
     id="base"
     pagecolor="#ffffff"
     bordercolor="#666666"
     borderopacity="1.0"
     inkscape:pageopacity="0.0"
     inkscape:pageshadow="2"
     inkscape:zoom="0.35"
     inkscape:cx="334.85735"
     inkscape:cy="152.57124"
     inkscape:document-units="mm"
     inkscape:current-layer="layer1"
     showgrid="false"
     inkscape:window-width="1920"
     inkscape:window-height="1024"
     inkscape:window-x="0"
     inkscape:window-y="28"
     inkscape:window-maximized="1" />
  <metadata
     id="metadata5">
    <rdf:RDF>
      <cc:Work
         rdf:about="">
        <dc:format>image/svg+xml</dc:format>
        <dc:type
           rdf:resource="http://purl.org/dc/dcmitype/StillImage" />
        <dc:title></dc:title>
      </cc:Work>
    </rdf:RDF>
  </metadata>
  <g
     inkscape:label="Livello 1"
     inkscape:groupmode="layer"
     id="layer1"
     transform="translate(-17.23566,-87.601215)">
    <path
       id="path3753"
       d="m 182.04059,123.32122 -72.97657,22.51604 a 25.4,25.4 0 0 1 -14.322964,0 L 41.682837,129.46669 c -2.265892,3.02631 -2.915179,6.09865 -3.153304,10.14281 2.460095,1.48113 4.106333,4.17724 4.106333,7.25831 0,3.1623 -1.734873,5.91767 -4.303448,7.37156 l 4.285456,32.56915 c 0.166688,1.26629 -0.820208,2.39262 -2.098675,2.39262 h -12.7 c -1.277408,0 -2.265363,-1.12527 -2.098675,-2.39289 l 4.285457,-32.56915 c -2.568575,-1.45362 -4.303449,-4.20899 -4.303449,-7.37129 0,-3.184 1.758421,-5.95603 4.356365,-7.40198 0.250561,-4.74954 1.051454,-8.79237 3.215217,-12.59338 l -11.509905,-3.55123 c -6.052608,-1.79943 -6.023504,-10.38252 0,-12.17348 L 94.740791,88.631701 a 25.4,25.4 0 0 1 14.322959,0 l 72.97658,22.516039 c 6.05287,1.79943 6.02377,10.38251 2.6e-4,12.17348 z m -70.47996,30.6062 -0.0548,0.0169 -0.0548,0.0161 a 33.866137,33.866137 0 0 1 -19.096844,0 l -0.05477,-0.0161 -0.05477,-0.0169 -39.929323,-12.32164 -3.329517,22.19536 c 0,9.35197 23.691585,16.93334 52.916674,16.93334 29.22508,0 52.91666,-7.58137 52.91666,-16.93334 l -3.32925,-22.19536 z"
       inkscape:connector-curvature="0"
       style="fill:#cccccc;stroke-width:0.26458332" />
  </g>
</svg>
